<?xml version="1.0" encoding="utf-8"?>
<!-- Generator: Adobe Illustrator 19.2.1, SVG Export Plug-In . SVG Version: 6.00 Build 0)  -->
<svg version="1.1" id="Layer_1" xmlns="http://www.w3.org/2000/svg" xmlns:xlink="http://www.w3.org/1999/xlink" x="0px" y="0px"
	 viewBox="0 0 109.007 150.002" style="enable-background:new 0 0 109.007 150.002;" xml:space="preserve">
<style type="text/css">
	.st0{display:none;fill:none;stroke:#FFFFFF;stroke-width:2;stroke-linecap:round;stroke-miterlimit:10;}
	.st1{fill:#D5D2E4;}
	.st2{fill:#43324E;}
	.st3{fill:#FFFFFF;}
	.st4{fill:#ECEDED;}
	.st5{fill:#E1E2E3;}
	.st6{fill:url(#SVGID_1_);}
	.st7{fill:url(#SVGID_2_);}
	.st8{fill:#414042;}
	.st9{fill:#96806A;}
	.st10{fill:#EDDFC7;}
	.st11{fill:#594A42;}
	.st12{fill:#E81C24;}
	.st13{fill:#00ADFF;}
	.st14{fill:#FFDFD7;}
	.st15{fill:#A63E45;}
	.st16{fill:#328BE7;}
	.st17{fill:#49CA8F;}
	.st18{fill:#58595B;}
	.st19{fill:#FF8BA5;}
	.st20{fill:#EFF0F0;}
	.st21{fill:#978278;}
	.st22{fill:#CED0D1;}
	.st23{fill:#FFC877;}
	.st24{fill:#6866A4;}
	.st25{fill:#A0DEFF;}
	.st26{fill:#FF4E00;}
	.st27{fill:#0068A8;}
	.st28{fill:#21405D;}
	.st29{fill:#991F63;}
	.st30{fill:#881F63;}
	.st31{fill:#BF956C;}
	.st32{fill:#AE865F;}
	.st33{fill:#E0312B;}
	.st34{fill:#E6E6E6;}
	.st35{fill:#B4B6B7;}
	.st36{fill:#BD2C25;}
	.st37{fill:#2F2E30;}
	.st38{fill:#231F20;}
	.st39{fill:#FFCDED;}
	.st40{fill:#FFBBED;}
	.st41{fill:#FFE98C;}
	.st42{fill:#695E98;}
	.st43{fill:#CCCECF;}
	.st44{fill:#C5625D;}
	.st45{fill:#FFACAE;}
	.st46{fill:#414141;}
	.st47{fill:#006ED9;}
	.st48{fill:#38A1F2;}
	.st49{fill:#47A9F3;}
	.st50{fill:#80BFCF;}
	.st51{fill:#8DCDDC;}
	.st52{fill:#2498F0;}
	.st53{fill:#2B398B;}
	.st54{fill:#BDB096;}
	.st55{fill:#A39983;}
	.st56{fill:#FF868A;}
	.st57{fill:#E97279;}
	.st58{fill:#E75C54;}
	.st59{fill:#726658;}
	.st60{fill:#D2DCD8;}
	.st61{fill:#FFC36B;}
	.st62{fill:#E1F3F4;}
	.st63{fill:#FFA54C;}
	.st64{fill:#ED7F3A;}
	.st65{fill:#E79FA3;}
	.st66{fill:#E5E6E7;}
	.st67{fill:#B5DCE9;}
	.st68{fill:#95D3EF;}
	.st69{fill:#808080;}
	.st70{fill:#FFB5B2;}
	.st71{fill:#B91E2D;}
	.st72{fill:#A2D34F;}
	.st73{fill:#79A630;}
	.st74{fill:#37783C;}
	.st75{fill:#349DFF;}
	.st76{fill:#228FFF;}
	.st77{fill:#56D481;}
	.st78{fill:#005BEE;}
	.st79{fill:#FFE859;}
	.st80{fill:#FC4054;}
	.st81{fill:#FFFA7A;}
	.st82{fill:#A47C50;}
	.st83{fill:#E7D0C7;}
	.st84{fill:#E43442;}
	.st85{fill:#E7CC5F;}
	.st86{fill:#94653E;}
	.st87{fill:#CE2A34;}
	.st88{fill:#D1A64A;}
	.st89{fill:#7B4F3A;}
	.st90{fill:#FFDF36;}
	.st91{fill:#FFD319;}
	.st92{fill:#AC322F;}
	.st93{fill:#C1E4D6;}
	.st94{fill:#F6E6C4;}
	.st95{fill:#6B503F;}
	.st96{fill:#5A362A;}
	.st97{fill:#75483B;}
	.st98{fill:#82614D;}
	.st99{fill:#FFF1E0;}
	.st100{fill:#4F2F23;}
	.st101{fill:#5C4536;}
	.st102{fill:#CEC3A8;}
	.st103{fill:#719687;}
	.st104{fill:#463022;}
	.st105{fill:#6D6E71;}
	.st106{fill:#78797D;}
</style>
<g>
	<g>
		<rect x="35.007" y="24" class="st105" width="6" height="5"/>
		<path class="st105" d="M35.007,29v5c0,2.76-2.24,5-5,5s-5-2.24-5-5s2.24-5,5-5H35.007z"/>
		<path class="st105" d="M46.007,29c2.76,0,5,2.24,5,5s-2.24,5-5,5c-2.76,0-5-2.24-5-5v-5H46.007z"/>
		<path class="st105" d="M46.007,14c2.76,0,5,2.24,5,5s-2.24,5-5,5h-5v-5C41.007,16.24,43.247,14,46.007,14z"/>
		<path class="st105" d="M35.007,19v5h-5c-2.76,0-5-2.24-5-5s2.24-5,5-5S35.007,16.24,35.007,19z"/>
		<path class="st105" d="M46.007,108.34v35.32c0,2.4-1.94,4.34-4.34,4.34H6.347c-2.4,0-4.34-1.94-4.34-4.34v-35.32
			c0-2.4,1.94-4.34,4.34-4.34h35.32C44.067,104,46.007,105.94,46.007,108.34z"/>
		<path class="st105" d="M107.007,57.34v35.32c0,2.4-1.94,4.34-4.34,4.34H6.347c-2.4,0-4.34-1.94-4.34-4.34V57.34
			c0-2.4,1.94-4.34,4.34-4.34h96.32C105.067,53,107.007,54.94,107.007,57.34z"/>
		<path class="st105" d="M58.007,6.34v35.32c0,2.4-1.94,4.34-4.34,4.34H6.347c-2.4,0-4.34-1.94-4.34-4.34V6.34
			c0-2.4,1.94-4.34,4.34-4.34h47.32C56.067,2,58.007,3.94,58.007,6.34z"/>
		<path class="st106" d="M46.007,112L46.007,112l0-3.66c0-2.397-1.943-4.34-4.34-4.34H6.347c-2.397,0-4.34,1.943-4.34,4.34v35.32
			c0,2.397,1.943,4.34,4.34,4.34h3.66v0C10.007,128.118,26.125,112,46.007,112z"/>
		<path class="st106" d="M46.007,61h61v-3.66c0-2.397-1.943-4.34-4.34-4.34H6.348c-2.397,0-4.34,1.943-4.34,4.34v35.32
			c0,2.397,1.943,4.34,4.34,4.34h3.66v0C10.007,77.118,26.125,61,46.007,61z"/>
		<path class="st106" d="M10.007,46c0-19.882,16.118-36,36-36h12V6.34c0-2.397-1.943-4.34-4.34-4.34H6.348
			c-2.397,0-4.34,1.943-4.34,4.34v35.32c0,2.397,1.943,4.34,4.34,4.34L10.007,46L10.007,46z"/>
	</g>
	<g>
		<path class="st18" d="M6.347,48h47.32c3.496,0,6.34-2.844,6.34-6.34V6.34c0-3.496-2.844-6.34-6.34-6.34H6.347
			c-3.496,0-6.34,2.844-6.34,6.34v35.32C0.008,45.156,2.851,48,6.347,48z M4.008,6.34c0-1.29,1.05-2.34,2.34-2.34h47.32
			c1.29,0,2.34,1.05,2.34,2.34v35.32c0,1.29-1.05,2.34-2.34,2.34H6.347c-1.29,0-2.34-1.05-2.34-2.34V6.34z"/>
		<path class="st18" d="M102.668,51H6.347c-3.496,0-6.34,2.844-6.34,6.34v35.32c0,3.496,2.844,6.34,6.34,6.34h96.32
			c3.496,0,6.34-2.844,6.34-6.34V57.34C109.008,53.844,106.164,51,102.668,51z M105.008,92.66c0,1.29-1.05,2.34-2.34,2.34H6.347
			c-1.29,0-2.34-1.05-2.34-2.34V57.34c0-1.29,1.05-2.34,2.34-2.34h96.32c1.29,0,2.34,1.05,2.34,2.34V92.66z"/>
		<path class="st18" d="M41.668,102H6.347c-3.496,0-6.34,2.844-6.34,6.34v35.32c0,3.496,2.844,6.34,6.34,6.34h35.32
			c3.496,0,6.34-2.844,6.34-6.34v-35.32C48.008,104.844,45.164,102,41.668,102z M44.008,143.66c0,1.29-1.05,2.34-2.34,2.34H6.347
			c-1.29,0-2.34-1.05-2.34-2.34v-35.32c0-1.29,1.05-2.34,2.34-2.34h35.32c1.29,0,2.34,1.05,2.34,2.34V143.66z"/>
	</g>
	<g>
		<path class="st3" d="M32.008,113h-15c-1.104,0-2,0.896-2,2s0.896,2,2,2h11.826l-9.631,20.137
			c-0.477,0.997-0.055,2.191,0.941,2.668c0.278,0.133,0.572,0.195,0.862,0.195c0.746,0,1.462-0.419,1.806-1.137l11-23
			c0.296-0.62,0.254-1.349-0.112-1.93S32.694,113,32.008,113z"/>
		<path class="st3" d="M53.008,34c0-3.86-3.141-7-7-7h-3v-1h3c3.859,0,7-3.14,7-7s-3.141-7-7-7s-7,3.14-7,7v3h-2v-3
			c0-3.86-3.141-7-7-7s-7,3.14-7,7s3.141,7,7,7h3v1h-3c-3.859,0-7,3.14-7,7s3.141,7,7,7s7-3.14,7-7v-3h2v3c0,3.86,3.141,7,7,7
			S53.008,37.86,53.008,34z M43.008,19c0-1.654,1.346-3,3-3s3,1.346,3,3s-1.346,3-3,3h-3V19z M30.008,22c-1.654,0-3-1.346-3-3
			s1.346-3,3-3s3,1.346,3,3v3H30.008z M33.008,34c0,1.654-1.346,3-3,3s-3-1.346-3-3s1.346-3,3-3h3V34z M37.008,27v-1h2v1H37.008z
			 M46.008,37c-1.654,0-3-1.346-3-3v-3h3c1.654,0,3,1.346,3,3S47.662,37,46.008,37z"/>
		<path class="st3" d="M14.85,84.194C14.1,83.424,13.091,83,12.008,83c0-0.552,0.448-1,1-1h1c1.104,0,2-0.896,2-2s-0.896-2-2-2h-1
			c-2.757,0-5,2.243-5,5c0,1.083,0.424,2.093,1.157,2.806C9.915,86.576,10.925,87,12.008,87c0,0.358-0.185,0.596-0.294,0.706
			C11.603,87.815,11.366,88,11.008,88h-1c-1.104,0-2,0.896-2,2s0.896,2,2,2h1c1.334,0,2.589-0.521,3.534-1.466
			s1.466-2.2,1.466-3.534C16.008,85.917,15.584,84.907,14.85,84.194z"/>
		<path class="st3" d="M20.008,92c1.104,0,2-0.896,2-2v-3h2v3c0,1.104,0.896,2,2,2s2-0.896,2-2V80c0-1.104-0.896-2-2-2s-2,0.896-2,2
			v3h-2v-3c0-1.104-0.896-2-2-2s-2,0.896-2,2v10C18.008,91.104,18.903,92,20.008,92z"/>
		<path class="st3" d="M32.008,78c-1.104,0-2,0.896-2,2v10c0,1.104,0.896,2,2,2c1.104,0,2-0.896,2-2V80
			C34.008,78.896,33.112,78,32.008,78z"/>
		<path class="st3" d="M44.008,82c1.104,0,2-0.896,2-2s-0.896-2-2-2h-6c-1.104,0-2,0.896-2,2v10c0,1.104,0.896,2,2,2s2-0.896,2-2v-3
			h4c1.104,0,2-0.896,2-2s-0.896-2-2-2h-4v-1H44.008z"/>
		<path class="st3" d="M56.008,78h-7c-1.104,0-2,0.896-2,2s0.896,2,2,2h1v8c0,1.104,0.896,2,2,2s2-0.896,2-2v-8h2
			c1.104,0,2-0.896,2-2S57.112,78,56.008,78z"/>
	</g>
</g>
</svg>
