<?xml version="1.0" encoding="utf-8"?>
<!-- Generator: Adobe Illustrator 19.2.1, SVG Export Plug-In . SVG Version: 6.00 Build 0)  -->
<svg version="1.1" id="Layer_1" xmlns="http://www.w3.org/2000/svg" xmlns:xlink="http://www.w3.org/1999/xlink" x="0px" y="0px"
	 viewBox="0 0 78.994 150" style="enable-background:new 0 0 78.994 150;" xml:space="preserve">
<style type="text/css">
	.st0{display:none;fill:none;stroke:#FFFFFF;stroke-width:2;stroke-linecap:round;stroke-miterlimit:10;}
	.st1{fill:#D5D2E4;}
	.st2{fill:#43324E;}
	.st3{fill:#FFFFFF;}
	.st4{fill:#ECEDED;}
	.st5{fill:#E1E2E3;}
	.st6{fill:url(#SVGID_1_);}
	.st7{fill:url(#SVGID_2_);}
	.st8{fill:#414042;}
	.st9{fill:#96806A;}
	.st10{fill:#EDDFC7;}
	.st11{fill:#594A42;}
	.st12{fill:#E81C24;}
	.st13{fill:#00ADFF;}
	.st14{fill:#FFDFD7;}
	.st15{fill:#A63E45;}
	.st16{fill:#328BE7;}
	.st17{fill:#49CA8F;}
	.st18{fill:#58595B;}
	.st19{fill:#FF8BA5;}
	.st20{fill:#EFF0F0;}
	.st21{fill:#978278;}
	.st22{fill:#CED0D1;}
	.st23{fill:#FFC877;}
	.st24{fill:#6866A4;}
	.st25{fill:#A0DEFF;}
	.st26{fill:#FF4E00;}
	.st27{fill:#0068A8;}
	.st28{fill:#21405D;}
	.st29{fill:#991F63;}
	.st30{fill:#881F63;}
	.st31{fill:#BF956C;}
	.st32{fill:#AE865F;}
	.st33{fill:#E0312B;}
	.st34{fill:#E6E6E6;}
	.st35{fill:#B4B6B7;}
	.st36{fill:#BD2C25;}
	.st37{fill:#2F2E30;}
	.st38{fill:#231F20;}
	.st39{fill:#FFCDED;}
	.st40{fill:#FFBBED;}
	.st41{fill:#FFE98C;}
	.st42{fill:#695E98;}
	.st43{fill:#CCCECF;}
	.st44{fill:#C5625D;}
	.st45{fill:#FFACAE;}
	.st46{fill:#414141;}
	.st47{fill:#006ED9;}
	.st48{fill:#38A1F2;}
	.st49{fill:#47A9F3;}
	.st50{fill:#80BFCF;}
	.st51{fill:#8DCDDC;}
	.st52{fill:#2498F0;}
	.st53{fill:#2B398B;}
	.st54{fill:#BDB096;}
	.st55{fill:#A39983;}
	.st56{fill:#FF868A;}
	.st57{fill:#E97279;}
	.st58{fill:#E75C54;}
	.st59{fill:#726658;}
	.st60{fill:#D2DCD8;}
	.st61{fill:#FFC36B;}
	.st62{fill:#E1F3F4;}
	.st63{fill:#FFA54C;}
	.st64{fill:#ED7F3A;}
	.st65{fill:#E79FA3;}
	.st66{fill:#E5E6E7;}
	.st67{fill:#B5DCE9;}
	.st68{fill:#95D3EF;}
	.st69{fill:#808080;}
	.st70{fill:#FFB5B2;}
	.st71{fill:#B91E2D;}
</style>
<g>
	<path class="st3" d="M47.994,86v39c0,12.7-10.3,23-23,23s-23-10.3-23-23V86h23H47.994z"/>
	<path class="st3" d="M47.994,86h-23V63c6.35,0,12.1,2.58,16.26,6.74C45.414,73.9,47.994,79.65,47.994,86z"/>
	<path class="st3" d="M24.994,63v23h-23C1.994,73.3,12.294,63,24.994,63z"/>
	<g>
		<path class="st70" d="M11.994,86h-10v39c0,12.7,10.3,23,23,23c1.718,0,3.39-0.194,5-0.552c-10.295-2.285-18-11.466-18-22.448V86"
			/>
		<path class="st70" d="M24.994,63c-12.7,0-23,10.3-23,23h10c0-9.116,5.308-16.996,13-20.717V63L24.994,63"/>
	</g>
	<path class="st71" d="M76.994,0c-1.104,0-2,0.896-2,2v21.5c0,1.378-1.121,2.5-2.5,2.5s-2.5-1.122-2.502-2.581l-0.101-2.49
		c-0.004-0.105-0.017-0.21-0.037-0.313C69.201,17.362,66.316,15,62.994,15c-3.859,0-7,3.14-7,7v8.12
		c0,5.799-4.564,10.539-10.287,10.85C44.551,35.811,39.956,32,34.494,32c-6.341,0-11.5,5.159-11.5,11.5
		c0,0.086,0.015,0.167,0.025,0.25c-0.01,0.083-0.025,0.164-0.025,0.25v17.087c-12.853,1.023-23,11.802-23,24.913v39
		c0,13.785,11.215,25,25,25s25-11.215,25-25V86c0-6.674-2.602-12.95-7.326-17.674c-4.248-4.249-9.755-6.774-15.674-7.24V44
		c0-0.086-0.015-0.167-0.025-0.25c0.01-0.083,0.025-0.164,0.025-0.25c0-4.136,3.364-7.5,7.5-7.5c3.255,0,6.042,2.072,7.075,5h-6.365
		c-3.687,0-6.841,2.775-7.182,6.321c-0.187,1.962,0.428,3.85,1.728,5.315c1.085,1.222,2.569,2.021,4.168,2.27
		C34.102,54.961,34.293,55,34.494,55c0.118,0,0.23-0.002,0.325-0.006C34.892,54.998,34.956,55,34.994,55
		c0.155,0,0.303-0.021,0.447-0.055c5.466-0.44,9.778-4.627,10.451-9.985c7.843-0.409,14.102-6.898,14.102-14.84V22
		c0-1.654,1.346-3,3-3c1.377,0,2.578,0.947,2.908,2.27l0.092,2.23c0,3.584,2.916,6.5,6.5,6.5s6.5-2.916,6.5-6.5V2
		C78.994,0.895,78.099,0,76.994,0z M22.994,65.101V84H4.096C5.044,74.015,13.009,66.05,22.994,65.101z M24.994,146
		c-11.579,0-21-9.421-21-21V88h42v37C45.994,136.579,36.573,146,24.994,146z M45.897,84H26.994V65.097
		c4.85,0.456,9.353,2.564,12.846,6.057C43.333,74.647,45.441,79.149,45.897,84z M34.856,50.983
		c-0.818-0.035-1.568-0.386-2.113-1.002c-0.556-0.626-0.817-1.437-0.737-2.28C32.151,46.186,33.556,45,35.204,45h6.641
		C41.184,48.286,38.386,50.782,34.856,50.983z"/>
</g>
</svg>
